<svg width="34" height="28" viewBox="0 0 34 28" fill="none" xmlns="http://www.w3.org/2000/svg">
<path d="M33.9041 13.5557C33.9041 14.3151 33.3398 14.9427 32.6077 15.042L32.4041 15.0557L6.03611 15.0545L15.5621 24.5415C16.1491 25.1261 16.1512 26.0758 15.5667 26.6628C15.0353 27.1965 14.202 27.2467 13.6139 26.8123L13.4453 26.6674L1.34534 14.6194C1.26796 14.5424 1.20075 14.459 1.1437 14.3709C1.12759 14.3444 1.11119 14.3173 1.09564 14.2896C1.08134 14.2659 1.06842 14.2413 1.05622 14.2164C1.03929 14.1802 1.02275 14.1428 1.00772 14.1046C0.995518 14.0751 0.985329 14.0465 0.976032 14.0177C0.964981 13.9819 0.954243 13.9437 0.945007 13.905C0.938141 13.878 0.932701 13.852 0.927959 13.8258C0.921288 13.787 0.915611 13.7468 0.91156 13.7061C0.908062 13.675 0.905956 13.6443 0.904793 13.6135C0.904491 13.5948 0.904114 13.5753 0.904114 13.5557L0.904865 13.4976C0.906013 13.4681 0.908024 13.4387 0.9109 13.4094L0.904114 13.5557C0.904114 13.461 0.91288 13.3684 0.929649 13.2786C0.933537 13.2572 0.938171 13.2351 0.943302 13.2132C0.953957 13.1681 0.96627 13.1246 0.98045 13.082C0.987408 13.0608 0.995518 13.0381 1.00418 13.0157C1.02171 12.9705 1.04076 12.9275 1.06172 12.8856C1.07146 12.8659 1.08236 12.8453 1.09378 12.8249C1.11253 12.7915 1.13184 12.7599 1.15226 12.729C1.16667 12.7072 1.18262 12.6844 1.19928 12.6621L1.21226 12.6448C1.25267 12.592 1.29652 12.5419 1.34345 12.495L1.34525 12.4936L13.4453 0.443616C14.0322 -0.140957 14.982 -0.13899 15.5666 0.448008C16.098 0.981642 16.1447 1.81507 15.7078 2.40139L15.5622 2.56932L6.04011 12.0545L32.4041 12.0557C33.2325 12.0557 33.9041 12.7272 33.9041 13.5557Z" fill="black" fill-opacity="0.3"/>
</svg>
