<svg width="39" height="41" viewBox="0 0 39 41" fill="none" xmlns="http://www.w3.org/2000/svg">
<path d="M10.2833 22.0952H2.26528C1.41273 22.0952 0.702271 21.4152 0.702271 20.5552C0.702271 19.7152 1.41273 19.0152 2.26528 19.0152H10.2833L10.2839 9.45542C10.2839 4.55542 14.4145 0.55542 19.4744 0.55542H29.553C34.5924 0.55542 38.7023 4.55542 38.7023 9.43542V31.6754C38.7023 36.5754 34.5924 40.5554 29.5117 40.5554H19.4538C14.4145 40.5554 10.2839 36.5754 10.2839 31.6954V22.0954H23.0887L19.7842 25.2954C19.1647 25.8954 19.1647 26.8754 19.7842 27.4754C20.094 27.7754 20.5071 27.9154 20.9202 27.9154C21.3126 27.9154 21.7256 27.7754 22.0354 27.4754L28.066 21.6554C28.3758 21.3754 28.5411 20.9754 28.5411 20.5554C28.5411 20.1554 28.3758 19.7554 28.066 19.4754L22.0354 13.6554C21.4158 13.0554 20.4038 13.0554 19.7842 13.6554C19.1647 14.2554 19.1647 15.2354 19.7842 15.8354L23.0887 19.0154H10.2839L10.2833 22.0952Z" fill="#FF5D5D"/>
</svg>
